<svg width="234" height="37" viewBox="0 0 234 37" fill="none" xmlns="http://www.w3.org/2000/svg">
<path d="M8.37242 31C8.37242 29.81 8.37242 28.665 8.37242 27.565C8.37242 26.465 8.37242 25.255 8.37242 23.935V17.155C8.37242 15.815 8.37242 14.59 8.37242 13.48C8.37242 12.36 8.37242 11.2 8.37242 10L9.45242 12.025H6.91742C5.70742 12.025 4.63242 12.025 3.69242 12.025C2.76242 12.025 1.87742 12.025 1.03742 12.025V9.61H18.4074V12.025C17.5674 12.025 16.6824 12.025 15.7524 12.025C14.8224 12.025 13.7474 12.025 12.5274 12.025H9.99242L11.0874 10C11.0874 11.2 11.0874 12.36 11.0874 13.48C11.0874 14.59 11.0874 15.815 11.0874 17.155V23.935C11.0874 25.255 11.0874 26.465 11.0874 27.565C11.0874 28.665 11.0874 29.81 11.0874 31H8.37242ZM30.7194 31.33C28.9094 31.33 27.3244 31.04 25.9644 30.46C24.6044 29.87 23.4694 29.065 22.5594 28.045C21.6594 27.015 20.9844 25.835 20.5344 24.505C20.0844 23.175 19.8594 21.77 19.8594 20.29C19.8594 18.21 20.2794 16.335 21.1194 14.665C21.9694 12.995 23.1944 11.67 24.7944 10.69C26.3944 9.71 28.3394 9.22 30.6294 9.22C32.3694 9.22 33.9044 9.505 35.2344 10.075C36.5744 10.645 37.6994 11.435 38.6094 12.445C39.5194 13.455 40.2044 14.63 40.6644 15.97C41.1244 17.31 41.3544 18.745 41.3544 20.275C41.3544 22.385 40.9344 24.275 40.0944 25.945C39.2544 27.605 38.0394 28.92 36.4494 29.89C34.8594 30.85 32.9494 31.33 30.7194 31.33ZM30.6444 28.99C32.0144 28.99 33.1944 28.755 34.1844 28.285C35.1744 27.805 35.9894 27.155 36.6294 26.335C37.2794 25.515 37.7594 24.585 38.0694 23.545C38.3794 22.495 38.5344 21.405 38.5344 20.275C38.5344 19.055 38.3644 17.92 38.0244 16.87C37.6944 15.81 37.1944 14.885 36.5244 14.095C35.8644 13.295 35.0444 12.675 34.0644 12.235C33.0844 11.785 31.9444 11.56 30.6444 11.56C29.3044 11.56 28.1344 11.795 27.1344 12.265C26.1444 12.735 25.3194 13.38 24.6594 14.2C23.9994 15.01 23.5044 15.94 23.1744 16.99C22.8444 18.03 22.6794 19.125 22.6794 20.275C22.6794 21.435 22.8394 22.535 23.1594 23.575C23.4794 24.615 23.9644 25.545 24.6144 26.365C25.2744 27.175 26.1044 27.815 27.1044 28.285C28.1044 28.755 29.2844 28.99 30.6444 28.99ZM53.8459 31.33C51.8559 31.33 50.2359 30.99 48.9859 30.31C47.7459 29.62 46.8309 28.655 46.2409 27.415C45.6609 26.165 45.3709 24.71 45.3709 23.05C45.3709 22.63 45.3709 22.09 45.3709 21.43C45.3709 20.76 45.3709 20.02 45.3709 19.21C45.3709 18.4 45.3709 17.585 45.3709 16.765C45.3709 15.415 45.3709 14.185 45.3709 13.075C45.3709 11.955 45.3709 10.8 45.3709 9.61H48.0709C48.0709 10.8 48.0709 11.955 48.0709 13.075C48.0709 14.185 48.0709 15.415 48.0709 16.765V22.78C48.0709 24.07 48.2609 25.18 48.6409 26.11C49.0209 27.04 49.6309 27.755 50.4709 28.255C51.3209 28.745 52.4459 28.99 53.8459 28.99C55.2559 28.99 56.3759 28.745 57.2059 28.255C58.0459 27.755 58.6509 27.04 59.0209 26.11C59.3909 25.18 59.5759 24.06 59.5759 22.75V16.765C59.5759 15.415 59.5759 14.185 59.5759 13.075C59.5759 11.955 59.5759 10.8 59.5759 9.61H62.2759C62.2759 10.8 62.2759 11.955 62.2759 13.075C62.2759 14.185 62.2759 15.415 62.2759 16.765C62.2759 17.585 62.2759 18.405 62.2759 19.225C62.2759 20.035 62.2759 20.775 62.2759 21.445C62.2759 22.115 62.2759 22.65 62.2759 23.05C62.2759 24.71 61.9809 26.165 61.3909 27.415C60.8009 28.655 59.8859 29.62 58.6459 30.31C57.4059 30.99 55.8059 31.33 53.8459 31.33ZM67.5699 31C67.5699 29.81 67.5699 28.665 67.5699 27.565C67.5699 26.465 67.5699 25.255 67.5699 23.935V16.75C67.5699 15.42 67.5699 14.195 67.5699 13.075C67.5699 11.955 67.5699 10.8 67.5699 9.61C68.1399 9.61 68.7949 9.61 69.5349 9.61C70.2849 9.61 71.0999 9.61 71.9799 9.61C72.8699 9.61 73.8099 9.61 74.7999 9.61C76.4299 9.61 77.7849 9.805 78.8649 10.195C79.9549 10.575 80.7699 11.19 81.3099 12.04C81.8599 12.89 82.1349 14.01 82.1349 15.4C82.1349 16.57 81.9049 17.64 81.4449 18.61C80.9949 19.58 80.2399 20.36 79.1799 20.95C78.1199 21.53 76.6849 21.825 74.8749 21.835L75.7299 20.65L79.1049 24.865C79.6349 25.515 80.1949 26.21 80.7849 26.95C81.3749 27.69 81.9499 28.415 82.5099 29.125C83.0699 29.825 83.5699 30.45 84.0099 31H80.8299C80.1199 30.1 79.4349 29.23 78.7749 28.39C78.1249 27.55 77.4799 26.73 76.8399 25.93L72.9999 20.98L74.6649 22.315H69.7599V20.08H73.8249C75.0749 20.08 76.1049 19.935 76.9149 19.645C77.7249 19.355 78.3299 18.89 78.7299 18.25C79.1299 17.6 79.3299 16.74 79.3299 15.67C79.3299 14.78 79.1849 14.08 78.8949 13.57C78.6149 13.05 78.2399 12.67 77.7699 12.43C77.3099 12.19 76.8099 12.035 76.2699 11.965C75.7299 11.895 75.2099 11.86 74.7099 11.86H68.4099L70.2249 10C70.2249 11.23 70.2249 12.4 70.2249 13.51C70.2249 14.62 70.2249 15.83 70.2249 17.14V23.935C70.2249 25.255 70.2249 26.465 70.2249 27.565C70.2249 28.665 70.2249 29.81 70.2249 31H67.5699Z" fill="white"/>
<path d="M102.788 31C102.788 29.81 102.788 28.665 102.788 27.565C102.788 26.465 102.788 25.255 102.788 23.935V16.75C102.788 15.42 102.788 14.195 102.788 13.075C102.788 11.955 102.788 10.8 102.788 9.61C103.598 9.61 104.643 9.61 105.923 9.61C107.213 9.61 108.688 9.61 110.348 9.61C111.978 9.61 113.323 9.825 114.383 10.255C115.453 10.685 116.253 11.355 116.783 12.265C117.313 13.165 117.578 14.32 117.578 15.73C117.578 17.04 117.333 18.205 116.843 19.225C116.363 20.235 115.553 21.03 114.413 21.61C113.283 22.19 111.738 22.48 109.778 22.48C109.278 22.48 108.743 22.48 108.173 22.48C107.603 22.48 107.048 22.48 106.508 22.48C105.968 22.48 105.498 22.48 105.098 22.48V20.23H109.268C110.548 20.23 111.593 20.08 112.403 19.78C113.223 19.48 113.828 19 114.218 18.34C114.608 17.68 114.803 16.815 114.803 15.745C114.803 14.865 114.658 14.165 114.368 13.645C114.088 13.125 113.713 12.74 113.243 12.49C112.783 12.23 112.283 12.06 111.743 11.98C111.203 11.9 110.678 11.86 110.168 11.86H104.138L105.458 10C105.458 11.2 105.458 12.36 105.458 13.48C105.458 14.59 105.458 15.81 105.458 17.14V23.935C105.458 25.255 105.458 26.465 105.458 27.565C105.458 28.665 105.458 29.81 105.458 31H102.788ZM121.626 31C121.626 29.81 121.626 28.665 121.626 27.565C121.626 26.465 121.626 25.255 121.626 23.935V16.765C121.626 15.415 121.626 14.185 121.626 13.075C121.626 11.955 121.626 10.8 121.626 9.61H124.341C124.341 10.8 124.341 11.955 124.341 13.075C124.341 14.185 124.341 15.415 124.341 16.765V23.515C124.341 24.835 124.341 26.045 124.341 27.145C124.341 28.245 124.341 29.39 124.341 30.58L123.321 28.585H127.251C128.391 28.585 129.396 28.585 130.266 28.585C131.146 28.585 131.956 28.585 132.696 28.585C133.446 28.585 134.211 28.585 134.991 28.585V31H121.626ZM136.904 31C137.324 29.85 137.759 28.64 138.209 27.37C138.669 26.1 139.109 24.895 139.529 23.755L142.184 16.405C142.654 15.085 143.084 13.895 143.474 12.835C143.864 11.765 144.254 10.69 144.644 9.61H148.214C148.604 10.71 148.989 11.79 149.369 12.85C149.749 13.91 150.174 15.1 150.644 16.42L153.284 23.785C153.704 24.965 154.134 26.18 154.574 27.43C155.024 28.67 155.454 29.86 155.864 31H153.044C152.614 29.75 152.169 28.465 151.709 27.145C151.259 25.815 150.834 24.565 150.434 23.395L146.534 12.055H146.279L142.349 23.29C141.919 24.51 141.474 25.79 141.014 27.13C140.554 28.46 140.099 29.75 139.649 31H136.904ZM140.864 25.63L141.104 23.5H151.934L152.129 25.63H140.864ZM159.506 31C159.506 29.81 159.506 28.665 159.506 27.565C159.506 26.465 159.506 25.255 159.506 23.935V16.765C159.506 15.415 159.506 14.185 159.506 13.075C159.506 11.955 159.506 10.8 159.506 9.61H161.951C163.231 11.41 164.461 13.145 165.641 14.815C166.821 16.485 167.986 18.13 169.136 19.75L173.771 26.29H173.996V16.765C173.996 15.415 173.996 14.185 173.996 13.075C173.996 11.955 173.996 10.8 173.996 9.61H176.576C176.576 10.8 176.576 11.955 176.576 13.075C176.576 14.185 176.576 15.415 176.576 16.765V23.935C176.576 25.255 176.576 26.465 176.576 27.565C176.576 28.665 176.576 29.81 176.576 31H174.161C173.101 29.5 171.986 27.925 170.816 26.275C169.646 24.615 168.361 22.795 166.961 20.815L162.296 14.23H162.086V23.935C162.086 25.255 162.086 26.465 162.086 27.565C162.086 28.665 162.086 29.81 162.086 31H159.506ZM182.124 31C182.124 29.81 182.124 28.665 182.124 27.565C182.124 26.465 182.124 25.255 182.124 23.935V16.75C182.124 15.42 182.124 14.195 182.124 13.075C182.124 11.955 182.124 10.8 182.124 9.61H195.414V11.935C194.414 11.935 193.339 11.935 192.189 11.935C191.049 11.935 189.699 11.935 188.139 11.935H183.279L184.779 10C184.779 11.2 184.779 12.36 184.779 13.48C184.779 14.59 184.779 15.81 184.779 17.14V23.53C184.779 24.84 184.779 26.05 184.779 27.16C184.779 28.26 184.779 29.405 184.779 30.595L183.429 28.675H188.379C189.689 28.675 190.924 28.675 192.084 28.675C193.254 28.675 194.374 28.675 195.444 28.675V31H182.124ZM184.194 21.295V19.03H188.349C189.729 19.03 190.919 19.03 191.919 19.03C192.919 19.03 193.884 19.03 194.814 19.03V21.295C193.834 21.295 192.844 21.295 191.844 21.295C190.854 21.295 189.684 21.295 188.334 21.295H184.194ZM205.426 31C205.426 29.81 205.426 28.665 205.426 27.565C205.426 26.465 205.426 25.255 205.426 23.935V17.155C205.426 15.815 205.426 14.59 205.426 13.48C205.426 12.36 205.426 11.2 205.426 10L206.506 12.025H203.971C202.761 12.025 201.686 12.025 200.746 12.025C199.816 12.025 198.931 12.025 198.091 12.025V9.61H215.461V12.025C214.621 12.025 213.736 12.025 212.806 12.025C211.876 12.025 210.801 12.025 209.581 12.025H207.046L208.141 10C208.141 11.2 208.141 12.36 208.141 13.48C208.141 14.59 208.141 15.815 208.141 17.155V23.935C208.141 25.255 208.141 26.465 208.141 27.565C208.141 28.665 208.141 29.81 208.141 31H205.426ZM225.365 31.33C224.475 31.33 223.575 31.245 222.665 31.075C221.765 30.915 220.93 30.715 220.16 30.475C219.4 30.225 218.785 29.975 218.315 29.725L218.57 27.16C219.24 27.53 219.935 27.855 220.655 28.135C221.385 28.405 222.125 28.615 222.875 28.765C223.635 28.915 224.41 28.99 225.2 28.99C226.09 28.99 226.89 28.87 227.6 28.63C228.32 28.38 228.885 27.99 229.295 27.46C229.715 26.92 229.925 26.215 229.925 25.345C229.925 24.585 229.71 23.96 229.28 23.47C228.85 22.97 228.225 22.54 227.405 22.18C226.595 21.82 225.61 21.46 224.45 21.1C223.09 20.67 221.93 20.205 220.97 19.705C220.01 19.205 219.275 18.59 218.765 17.86C218.265 17.12 218.015 16.18 218.015 15.04C218.015 13.93 218.275 12.935 218.795 12.055C219.325 11.175 220.11 10.485 221.15 9.985C222.19 9.475 223.48 9.22 225.02 9.22C225.66 9.22 226.29 9.265 226.91 9.355C227.54 9.445 228.14 9.57 228.71 9.73C229.28 9.88 229.8 10.05 230.27 10.24C230.74 10.43 231.14 10.625 231.47 10.825L231.2 13.405C230.59 12.995 229.945 12.655 229.265 12.385C228.585 12.105 227.91 11.9 227.24 11.77C226.57 11.63 225.95 11.56 225.38 11.56C224.57 11.56 223.825 11.68 223.145 11.92C222.465 12.16 221.915 12.53 221.495 13.03C221.085 13.52 220.88 14.155 220.88 14.935C220.88 15.615 221.055 16.18 221.405 16.63C221.755 17.08 222.305 17.485 223.055 17.845C223.815 18.195 224.79 18.56 225.98 18.94C227.7 19.48 229.05 20.03 230.03 20.59C231.02 21.14 231.72 21.78 232.13 22.51C232.55 23.24 232.76 24.135 232.76 25.195C232.76 26.365 232.5 27.41 231.98 28.33C231.47 29.25 230.67 29.98 229.58 30.52C228.49 31.06 227.085 31.33 225.365 31.33Z" fill="#8CB3FF"/>
<circle cx="92.5" cy="20.5" r="2.5" fill="white"/>
</svg>
